<?xml version="1.0" standalone="no"?>
<!DOCTYPE svg PUBLIC "-//W3C//DTD SVG 1.1//EN" "http://www.w3.org/Graphics/SVG/1.1/DTD/svg11.dtd" >
<svg xmlns="http://www.w3.org/2000/svg">
<metadata>Generated by IcoMoon</metadata>
<defs>
<font id="ui-icons" horiz-adv-x="1024">
<font-face units-per-em="1024" ascent="960" descent="-64" />
<missing-glyph horiz-adv-x="1024" />
<glyph unicode="&#x20;" horiz-adv-x="512" d="" />
<glyph unicode="&#xe001;" glyph-name="arrow-long-down" d="M569.344-39.424l335.872 335.872c22.528 22.528 22.528 58.982 0 81.101-22.528 22.528-58.982 22.528-81.51 0l-254.362-254.771v779.878c0 31.539-25.805 57.344-57.344 57.344v0c-31.539 0-57.344-25.805-57.344-57.344v-783.565l-254.771 258.048c-22.528 22.528-58.982 22.528-81.101 0.41v0c-22.528-22.528-22.528-58.573 0-81.101l337.51-335.872c15.974-15.974 35.635-24.576 56.525-24.576 20.070 0 41.37 9.011 56.525 24.576z" />
<glyph unicode="&#xe002;" glyph-name="arrow-long-left" d="M24.576 390.656l335.872-335.872c22.528-22.528 58.982-22.528 81.101 0 22.528 22.528 22.528 58.982 0 81.51l-254.771 254.362h779.878c31.539 0 57.344 25.805 57.344 57.344v0c0 31.539-25.805 57.344-57.344 57.344h-783.565l258.048 254.771c22.528 22.528 22.528 58.982 0.41 81.101v0c-22.528 22.528-58.573 22.528-81.101 0l-335.872-337.51c-15.974-15.974-24.576-35.635-24.576-56.525 0-20.070 9.011-41.37 24.576-56.525z" />
<glyph unicode="&#xe003;" glyph-name="arrow-long-right" d="M999.424 505.344l-335.872 335.872c-22.528 22.528-58.982 22.528-81.101 0-22.528-22.528-22.528-58.982 0-81.51l255.181-254.771h-780.288c-31.539 0-57.344-25.805-57.344-57.344v0c0-31.539 25.805-57.344 57.344-57.344h783.565l-258.048-254.771c-22.528-22.528-22.528-58.982-0.41-81.101v0c22.528-22.528 58.573-22.528 81.101 0l335.872 337.51c15.974 15.974 24.576 35.635 24.576 56.525 0 20.48-9.011 41.779-24.576 56.934z" />
<glyph unicode="&#xe004;" glyph-name="arrow-long-up" d="M454.656 935.424l-335.872-335.872c-22.528-22.528-22.528-58.982 0-81.101 22.528-22.528 58.982-22.528 81.51 0l254.362 254.771v-779.878c0-31.539 25.805-57.344 57.344-57.344v0c31.539 0 57.344 25.805 57.344 57.344v783.565l254.771-258.048c22.528-22.528 58.982-22.528 81.101-0.41v0c22.528 22.528 22.528 58.573 0 81.101l-337.51 335.872c-15.974 15.974-35.635 24.576-56.525 24.576-20.070 0-41.37-9.011-56.525-24.576z" />
<glyph unicode="&#xe005;" glyph-name="arrow-short-down" d="M1004.749 712.602c-12.288 12.288-28.672 18.842-45.875 18.842s-33.587-6.554-45.875-18.842l-403.046-403.456-399.77 403.456c-12.288 12.288-28.672 19.251-45.875 19.251s-33.178-6.554-45.466-18.842c-25.395-25.395-25.395-66.355 0-91.341l432.538-430.899c17.203-17.203 38.502-26.624 61.44-26.624 22.118 0 45.056 9.83 61.44 26.624l430.899 430.49c12.288 12.288 19.251 28.672 18.842 46.285 0 17.203-6.963 33.178-19.251 45.056z" />
<glyph unicode="&#xe006;" glyph-name="arrow-short-left" d="M776.602-44.749c12.288 12.288 18.842 28.672 18.842 45.875s-6.554 33.587-18.842 45.875l-403.456 403.046 403.456 399.77c12.288 12.288 19.251 28.672 19.251 45.875s-6.554 33.178-18.842 45.466c-24.986 25.395-66.355 25.395-91.341 0l-430.899-432.538c-17.203-17.203-26.624-38.502-26.624-61.44 0-22.118 9.83-45.056 26.624-61.44l430.49-430.899c12.288-12.288 28.672-19.251 46.285-18.842 17.203 0 33.178 6.963 45.056 19.251z" />
<glyph unicode="&#xe007;" glyph-name="arrow-short-right" d="M247.398 940.749c-12.288-12.288-18.842-28.672-18.842-45.875s6.554-33.587 18.842-45.875l403.456-403.046-403.456-399.77c-12.288-12.288-19.251-28.672-19.251-45.875s6.554-33.178 18.842-45.466c24.986-25.395 66.355-25.395 91.341 0l430.899 432.538c17.203 17.203 26.624 38.502 26.624 61.44 0 22.118-9.83 45.056-26.624 61.44l-430.49 430.899c-12.288 12.288-28.672 19.251-46.285 18.842-17.203 0-33.178-6.963-45.056-19.251z" />
<glyph unicode="&#xe008;" glyph-name="arrow-short-up" d="M19.251 183.398c12.288-12.288 28.672-18.842 45.875-18.842s33.587 6.554 45.875 18.842l403.046 403.456 399.77-403.456c12.288-12.288 28.672-19.251 45.875-19.251s33.178 6.554 45.466 18.842c25.395 24.986 25.395 66.355 0 91.341l-432.538 430.899c-17.203 17.203-38.502 26.624-61.44 26.624-22.118 0-45.056-9.83-61.44-26.624l-430.899-430.49c-12.288-12.288-19.251-28.672-18.842-46.285 0-17.203 6.963-33.178 19.251-45.056z" />
<glyph unicode="&#xe009;" glyph-name="play-alt" d="M986.317 508.211l-890.47 444.826c-9.421 4.915-19.661 6.963-29.491 6.963-34.816 0-66.355-27.853-66.355-66.355v-891.29c0-38.502 31.539-66.355 66.355-66.355 9.83 0 20.070 2.048 29.491 6.963l890.47 444.006c49.971 24.986 49.971 96.256 0 121.242zM114.688 80.589v734.822l736.461-367.821-736.461-367.002z" />
<glyph unicode="&#xe010;" glyph-name="play" d="M60.211 960c-34.816 0-66.355-27.853-66.355-66.355v-891.29c0-38.502 31.539-66.355 66.355-66.355 9.83 0 20.070 2.048 29.491 6.963l890.47 444.006c49.971 24.986 49.971 96.256 0 121.242l-890.47 444.826c-9.421 4.915-19.661 6.963-29.491 6.963v0z" />
<glyph unicode="&#xe011;" glyph-name="search" d="M917.914-45.568c24.576-24.576 63.898-24.576 88.064 0 24.166 24.166 23.347 63.898-0.41 88.064l-212.173 210.944 15.974 23.347c47.514 72.090 72.909 156.058 72.909 242.074 0 243.302-197.837 441.139-441.139 441.139-243.302 0.41-441.139-197.427-441.139-440.73s197.837-441.139 441.139-441.139c86.835 0 170.803 25.395 242.074 72.909l23.347 15.974 211.354-212.582zM441.139 189.133c-181.862 0-330.547 147.866-330.547 330.547 0 181.862 147.866 330.547 330.547 330.547 181.862 0 330.547-147.866 330.547-330.547-0.41-181.862-148.685-330.547-330.547-330.547z" />
<glyph unicode="&#xe012;" glyph-name="close" d="M603.75 448l400.998 400.998c12.288 12.288 19.251 28.672 18.842 46.285 0 17.203-6.963 33.178-19.251 45.466s-28.672 18.842-45.875 18.842c-17.203 0-33.587-6.963-45.466-19.251l-400.998-400.998-401.408 401.408c-12.288 12.288-28.672 18.842-45.875 18.842-17.203 0.41-33.178-6.554-45.466-18.842-12.288-11.878-19.251-28.262-19.251-45.466s6.963-33.997 18.842-45.875l401.408-401.408-401.408-401.408c-12.288-12.288-19.251-28.672-18.842-46.285 0-17.203 6.963-33.178 19.251-45.466 11.878-11.878 28.672-18.842 45.466-18.842s33.587 6.963 45.875 18.842l401.408 401.408 401.408-401.408c12.288-12.288 28.672-18.842 45.875-18.842s33.587 6.554 45.466 18.842c12.288 11.878 19.251 27.853 19.251 45.056 0 17.613-6.554 33.997-18.842 46.285l-401.408 401.818z" />
<glyph unicode="&#xe013;" glyph-name="add" d="M966.656 505.344h-397.312v397.312c0 31.539-25.805 57.344-57.344 57.344s-57.344-25.805-57.344-57.344v-397.312h-397.312c-31.539 0-57.344-25.805-57.344-57.344s25.805-57.344 57.344-57.344h397.312v-397.312c0-31.539 25.805-57.344 57.344-57.344s57.344 25.805 57.344 57.344v397.312h397.312c31.539 0 57.344 25.805 57.344 57.344s-25.805 57.344-57.344 57.344z" />
<glyph unicode="&#xe014;" glyph-name="line-45deg" d="M926.106 943.206l-909.312-909.312c-22.118-22.118-22.118-58.982 0-81.101s58.982-22.118 81.101 0l909.312 909.312c22.118 22.118 22.118 58.982 0 81.101s-58.573 22.528-81.101 0z" />
<glyph unicode="&#xe015;" glyph-name="line-135deg-copy" d="M16.794 862.106l909.312-909.312c22.118-22.118 58.982-22.118 81.101 0s22.118 58.982 0 81.101l-909.312 909.312c-22.118 22.118-58.982 22.118-81.101 0s-22.528-58.573 0-81.101z" />
<glyph unicode="&#xe016;" glyph-name="line-horizontal" d="M966.656 505.344h-909.312c-31.539 0-57.344-25.805-57.344-57.344s25.805-57.344 57.344-57.344h909.312c31.539 0 57.344 25.805 57.344 57.344s-25.805 57.344-57.344 57.344z" />
<glyph unicode="&#xe017;" glyph-name="line-vertical-copy" d="M454.656 902.656v-909.312c0-31.539 25.805-57.344 57.344-57.344s57.344 25.805 57.344 57.344v909.312c0 31.539-25.805 57.344-57.344 57.344s-57.344-25.805-57.344-57.344z" />
<glyph unicode="&#xe018;" glyph-name="cart" d="M1010.074 690.893c-11.878 14.746-29.491 22.938-48.333 22.938h-748.749l-14.336 70.042c-4.096 20.070-17.613 36.454-36.454 44.646l-110.592 47.923c-18.842 8.192-40.55-0.41-48.742-18.842v0c-8.192-18.432 0.41-40.141 19.251-48.333l105.677-45.875 97.485-473.907c5.734-29.082 31.539-49.971 61.44-49.971h602.931c29.491 0 55.296 20.89 61.44 49.971l72.090 349.798c3.277 18.022-1.229 37.274-13.107 51.61zM947.814 640.922l-67.584-327.68h-584.499l-67.584 327.68h719.667zM482.918 88.371c0-39.814-32.276-72.090-72.090-72.090s-72.090 32.276-72.090 72.090c0 39.814 32.276 72.090 72.090 72.090s72.090-32.276 72.090-72.090zM839.68 88.371c0-39.814-32.276-72.090-72.090-72.090s-72.090 32.276-72.090 72.090c0 39.814 32.276 72.090 72.090 72.090s72.090-32.276 72.090-72.090z" />
<glyph unicode="&#xe019;" glyph-name="account" d="M952.73 188.723v0c-23.757 58.982-58.163 111.411-101.99 156.058-49.152 49.971-106.906 87.654-171.622 112.23l-4.096 1.638 3.686 2.458c68.813 52.429 110.182 135.168 110.182 221.594 0 63.078-21.709 124.928-61.44 174.080-38.502 47.923-92.979 81.92-153.19 96.256-21.709 4.506-42.189 6.963-61.85 6.963h-1.229c-19.661 0-40.141-2.458-61.030-6.963-59.802-13.517-114.688-47.923-154.010-97.075-39.731-48.333-61.44-110.182-61.44-174.080 0-86.016 40.96-168.755 110.182-221.594l3.686-2.458-4.096-1.638c-65.126-24.166-122.88-62.259-171.213-112.23-43.418-43.827-77.824-96.256-101.99-156.058-23.347-58.573-35.226-120.013-35.226-183.091v-19.661c0-27.034 22.118-49.152 49.152-49.152h854.426c27.034 0 49.152 22.118 49.152 49.152v19.661c-0.819 63.898-12.698 125.747-36.045 183.91zM317.44 682.291c0 43.827 15.155 87.245 43.008 122.061v0c27.443 34.406 65.946 58.573 107.725 67.994 13.517 3.277 28.262 4.915 43.008 4.915 15.155 0 30.31-1.638 43.418-4.915 42.189-9.83 80.691-33.997 107.725-67.994 27.443-33.997 42.598-77.414 42.598-122.061 0-106.906-87.245-194.56-194.15-194.97-106.496 0.41-193.331 88.064-193.331 194.97zM511.59 404.173c52.838 0 104.038-10.65 152.371-31.13 46.694-20.070 88.883-48.333 124.928-83.968 36.045-36.045 64.307-77.824 84.787-124.518 20.48-47.923 31.13-97.894 31.949-147.866v-2.458h-787.661v2.458c0.819 51.61 11.469 101.581 31.949 148.275 20.070 46.694 48.333 88.474 84.787 124.518 35.635 35.635 77.824 63.898 124.928 83.968 48.333 19.661 99.533 30.31 151.962 30.72z" />
<glyph unicode="&#xe020;" glyph-name="bag" d="M900.71 711.373h-170.394v30.31c0 120.422-97.894 218.317-218.317 218.317-120.422-0.41-217.907-98.304-217.907-218.317v-30.31h-170.803c-21.299 0-38.912-17.203-38.912-38.912v-564.429c0-95.027 77.414-172.032 172.032-172.032h510.362c95.027 0 172.032 77.414 172.032 172.032v564.838c0.41 21.299-16.794 38.502-38.093 38.502zM511.59 882.176c77.005-0.41 140.083-63.488 140.083-140.493v-30.31h-280.166v30.31c0 77.414 63.078 140.493 140.083 140.493zM861.389 633.958v-525.926c0-52.019-42.189-94.208-94.208-94.208h-510.362c-52.019 0-94.208 42.189-94.208 94.208v525.926h698.778z" />
<glyph unicode="&#xe021;" glyph-name="add-to-bag" d="M899.891 164.966h-111.411v111.002c0 21.709-17.613 39.322-39.322 39.322s-39.322-17.613-39.322-39.322v-111.411h-111.411c-21.709 0-39.322-17.613-39.322-39.322s17.613-39.322 39.322-39.322h111.411v-111.411c0-21.709 17.613-39.322 39.322-39.322s39.322 17.613 39.322 39.322v111.411h111.411c21.709 0 39.322 17.613 39.322 39.322 0 22.118-17.613 39.731-39.322 39.731zM525.107 14.643h-268.288c-52.019 0-94.208 42.189-94.208 94.208v525.107h698.778v-283.853c0-21.299 17.203-38.912 38.912-38.912 21.299 0 38.912 17.203 38.912 38.912v322.765c0 10.24-3.686 20.070-10.65 27.034-7.373 7.373-17.203 11.469-27.443 11.469h-170.394v30.31c0 120.422-97.894 218.317-218.317 218.317-120.832-0.41-218.317-98.304-218.317-218.317v-30.31h-170.394c-21.299 0-38.912-17.203-38.912-38.912v-564.429c0-95.027 77.005-172.032 172.032-172.032h268.288c21.709 0 39.322 17.613 39.322 39.322s-17.613 39.322-39.322 39.322zM511.59 882.176c77.005-0.41 140.083-63.488 140.083-140.083v-30.31h-280.166v30.31c0 77.005 63.078 140.083 140.083 140.083z" />
<glyph unicode="&#xe022;" glyph-name="ellipsis" d="M204.8 448c0-56.554-45.846-102.4-102.4-102.4s-102.4 45.846-102.4 102.4c0 56.554 45.846 102.4 102.4 102.4s102.4-45.846 102.4-102.4zM1024 448c0-56.554-45.846-102.4-102.4-102.4s-102.4 45.846-102.4 102.4c0 56.554 45.846 102.4 102.4 102.4s102.4-45.846 102.4-102.4zM614.4 448c0-56.554-45.846-102.4-102.4-102.4s-102.4 45.846-102.4 102.4c0 56.554 45.846 102.4 102.4 102.4s102.4-45.846 102.4-102.4z" />
<glyph unicode="&#xe023;" glyph-name="locked" d="M768.41 608.154h-39.322v134.758c0 119.603-97.485 217.088-217.088 217.088-119.603-0.41-216.678-97.485-216.678-217.088v-134.758h-39.322c-94.208 0-170.803-76.595-170.803-170.803v-330.547c0-94.208 76.595-170.803 170.803-170.803h512.41c94.208 0 170.803 76.595 170.803 170.803v330.547c0 94.208-76.595 170.803-170.803 170.803zM369.050 742.912c0 78.643 64.307 142.95 142.95 142.95 78.643-0.41 142.541-64.307 142.541-142.95v-134.758h-285.491v134.758zM865.075 106.803c0-53.248-43.418-96.666-96.666-96.666h-512.41c-53.248 0-96.666 43.418-96.666 96.666v330.547c0 53.248 43.418 96.666 96.666 96.666h512.41c53.248 0 96.666-43.418 96.666-96.666v-330.547zM512.41 169.472v0c-20.48 0-36.864 16.384-36.864 36.864v131.072c0 20.48 16.384 36.864 36.864 36.864v0c20.48 0 36.864-16.384 36.864-36.864v-131.072c0-20.070-16.794-36.864-36.864-36.864z" />
<glyph unicode="&#xe024;" glyph-name="unlocked" d="M768.41 608.154h-39.322v134.758c0 119.603-97.485 217.088-217.088 217.088-119.603-0.41-216.678-97.485-216.678-217.088v-6.554c0-20.48 16.384-36.864 36.864-36.864v0c20.48 0 36.864 16.384 36.864 36.864v6.554c0 78.643 64.307 142.95 142.95 142.95 78.643-0.41 142.541-64.307 142.541-142.95v-134.758h-398.541c-94.208 0-170.803-76.595-170.803-170.803v-330.547c0-94.208 76.595-170.803 170.803-170.803h512.41c94.208 0 170.803 76.595 170.803 170.803v330.547c0 94.208-76.595 170.803-170.803 170.803zM865.075 106.803c0-53.248-43.418-96.666-96.666-96.666h-512.41c-53.248 0-96.666 43.418-96.666 96.666v330.547c0 53.248 43.418 96.666 96.666 96.666h512.41c53.248 0 96.666-43.418 96.666-96.666v-330.547zM512.41 169.472v0c-20.48 0-36.864 16.384-36.864 36.864v131.072c0 20.48 16.384 36.864 36.864 36.864v0c20.48 0 36.864-16.384 36.864-36.864v-131.072c0-20.070-16.794-36.864-36.864-36.864z" />
<glyph unicode="&#xe025;" glyph-name="refresh-alt" d="M0.819 408.269c20.070-264.192 240.845-472.269 510.362-472.269 289.587 0 523.059 240.026 511.59 532.070-10.24 272.384-235.52 490.291-507.904 491.93-171.213 1.229-322.765-81.51-416.973-209.715l0.41 172.442c0 20.48-16.794 37.274-37.274 37.274-9.83 0-18.842-3.686-25.805-10.65s-10.65-16.384-10.65-26.214l-0.819-237.568c0-15.974 6.144-31.949 16.794-42.598 11.059-11.059 25.805-16.794 43.008-16.794l238.387-1.229c9.83 0 19.251 3.686 26.214 10.65s10.65 16.384 10.65 26.214c0 20.070-16.384 36.454-36.864 36.454l-172.032-2.458c18.842 27.443 40.96 52.838 65.946 75.776 77.005 70.451 176.947 111.002 280.986 114.278 124.518 4.096 242.483-43.418 328.909-132.71 77.824-79.872 122.47-187.597 124.109-299.008 1.638-121.242-45.466-235.11-132.301-319.898-80.691-78.234-189.235-122.88-301.466-124.109-118.784-1.229-230.605 44.237-314.573 128.205-74.547 74.547-119.194 171.622-126.976 276.070-1.638 18.842-17.613 33.587-36.864 33.587-21.709 0-38.502-18.432-36.864-39.731z" />
<glyph unicode="&#xe026;" glyph-name="refresh" d="M986.317 448c-19.251 0-35.226-14.746-36.864-33.587-7.782-104.448-52.429-201.523-126.976-276.070-83.968-83.968-195.789-129.434-314.573-128.205-112.23 1.229-220.774 45.875-301.466 124.109-86.835 84.787-133.939 198.656-132.301 319.898 1.638 111.411 46.285 219.136 124.109 299.008 86.426 89.293 204.39 136.806 328.909 132.71 104.038-3.277 203.981-43.827 280.986-114.278 24.986-22.938 47.104-48.333 65.946-75.776l-172.032 2.458c-20.48 0-36.864-16.384-36.864-36.454 0-9.83 3.686-19.251 10.65-26.214s16.384-10.65 26.214-10.65l238.387 1.229c17.203 0 31.949 5.734 43.008 16.794 10.65 10.65 16.794 26.624 16.794 42.598v0 0l-0.819 237.568c0 9.83-3.686 19.251-10.65 26.214s-15.974 10.65-25.805 10.65c-20.48 0-37.274-16.794-37.274-37.274l0.41-172.442c-94.208 128.205-245.76 210.944-416.973 209.715-272.384-1.638-497.664-219.546-507.904-491.93-11.469-292.045 222.003-532.070 511.59-532.070 269.517 0 490.291 208.077 510.362 472.269 1.638 21.299-15.155 39.731-36.864 39.731z" />
<glyph unicode="&#xe027;" glyph-name="cloud-download" d="M670.925 298.086c-9.83 0-19.251-3.686-26.214-10.65l-96.256-96.666v334.643c0 20.070-16.384 36.454-36.454 36.454s-36.454-16.384-36.454-36.454v-336.691l-96.666 98.714c-6.963 6.963-15.974 10.65-26.214 10.65-9.83 0-18.842-3.686-25.395-10.24-14.336-14.336-14.336-37.274 0-51.61l150.733-149.504c9.83-9.83 22.118-15.155 34.816-15.155 0.41 0 0.819 0 1.229 0 12.288 0 24.576 5.325 33.178 14.746l149.504 149.504c6.963 6.963 10.65 15.974 10.65 25.805s-3.686 18.842-10.65 25.805c-6.554 6.963-15.974 10.65-25.805 10.65zM971.981 528.691c-33.178 33.587-81.101 54.477-128.614 52.429-11.878 61.030-43.827 118.784-89.293 161.792-56.115 52.429-129.434 81.51-205.619 81.51-55.706 0-110.182-15.565-157.696-45.056-37.683-22.528-70.451-54.886-95.027-92.979-20.070 6.144-47.104 7.782-60.211 7.782-63.078 0-122.061-24.576-166.298-68.813-44.646-44.237-69.222-103.219-69.222-166.298 0-62.669 24.576-121.651 69.222-166.298 21.299-21.299 47.104-36.864 74.547-47.923 12.288-4.915 24.986-9.011 38.093-11.878 14.746-3.686 31.949-9.421 47.104-3.686 11.878 4.915 20.48 15.974 22.118 28.672 2.458 18.432-9.83 35.635-28.262 39.322-20.48 4.096-70.861 16.794-102.4 47.923-30.72 30.72-47.514 71.27-47.514 114.278 0 42.598 16.794 83.558 47.514 114.688 30.72 30.72 71.68 47.514 115.098 47.514 18.432 0 33.997-4.096 51.2-9.83 13.926-4.506 29.491-7.373 42.598-0.819 19.661 9.83 27.853 34.406 40.55 50.79 16.794 21.709 35.635 42.189 58.982 56.525 35.635 22.118 77.005 33.997 119.603 33.997 58.163 0 113.459-22.118 155.648-61.85 22.118-20.89 40.141-45.875 52.429-73.728 6.144-13.926 11.059-28.672 13.926-43.827 3.277-15.974 2.458-33.178 9.83-47.923 7.782-15.974 22.938-20.89 39.731-19.251 18.022 1.638 38.502 4.506 56.115-1.229 16.384-5.325 31.539-13.926 43.418-25.805 20.070-20.070 31.13-46.694 31.13-74.957 0-29.901-11.878-57.344-33.587-77.414-12.698-11.878-28.672-20.070-45.466-24.166-19.661-4.915-39.322-2.048-59.392-3.277-20.48-1.229-38.912-15.974-38.502-37.683 0.41-9.83 4.506-19.251 11.469-26.214 10.24-9.421 24.576-10.65 38.093-10.65 13.926 0 28.262 0 42.189 1.638 29.901 3.277 58.982 14.746 83.558 32.358 7.782 5.734 15.565 12.288 22.528 19.251 33.587 33.587 52.019 78.234 52.019 126.157 0.41 47.104-18.022 92.16-51.61 124.928z" />
<glyph unicode="&#xe028;" glyph-name="cloud" d="M971.981 450.458c-33.178 33.587-81.101 54.477-128.614 52.429-11.878 61.030-43.827 118.784-89.293 161.792-56.115 52.429-129.434 81.51-205.619 81.51-55.706 0-110.182-15.565-157.696-45.056-37.683-22.528-70.451-54.886-95.027-92.979-20.070 6.144-47.104 7.782-60.211 7.782-63.078 0-122.061-24.576-166.298-68.813-44.646-43.827-69.222-103.219-69.222-166.298 0-46.285 13.926-91.75 39.731-130.253 21.709-32.358 49.152-61.030 84.787-77.005 38.502-17.613 83.558-23.757 126.566-23.757 35.635 0 577.946 0 577.946 0 41.779 0.41 86.016 4.506 120.832 29.901 7.782 5.734 15.565 12.288 22.528 19.251 33.587 33.587 52.019 78.234 52.019 126.157-0.41 47.923-18.842 92.57-52.429 125.338zM917.504 247.706c-25.805-24.166-57.344-27.443-90.931-27.443 0 0-549.274 0-578.355 0-57.344 0-98.714 18.022-127.795 46.694-30.72 30.72-47.514 71.27-47.514 114.278 0 42.598 16.794 83.558 47.514 114.688 30.72 30.72 71.68 47.514 115.098 47.514 18.432 0 33.997-4.096 51.2-9.83 13.926-4.506 29.491-7.373 42.598-0.819 19.661 9.83 27.853 34.406 40.55 50.79 16.794 21.709 35.635 42.189 58.982 56.525 35.635 22.118 77.005 33.997 119.603 33.997 58.163 0 113.459-22.118 155.648-61.85 22.118-20.89 40.141-45.875 52.429-73.728 6.144-13.926 11.059-28.672 13.926-43.827 3.277-15.974 2.458-33.178 9.83-47.923 7.782-15.974 22.938-20.89 39.731-19.251 18.022 1.638 38.502 4.506 56.115-1.229 16.384-5.325 31.539-13.926 43.418-25.805 20.070-20.070 31.13-46.694 31.13-74.957 0.41-29.901-11.469-57.754-33.178-77.824z" />
<glyph unicode="&#xe029;" glyph-name="mail" d="M53.248 121.549h917.504c29.491 0 53.248 23.757 53.248 53.248v546.406c0.41 17.613-8.192 33.997-23.347 44.237-8.602 5.734-18.432 8.602-29.491 8.602h-917.914c-10.24 0-20.48-3.277-29.491-9.011-14.746-9.421-23.757-26.214-23.757-43.827v-545.997c0-29.491 23.757-53.658 53.248-53.658zM123.29 708.096h792.166l-11.878-7.373-391.168-250.266-2.048 1.229-400.998 256.41h13.926zM66.355 192v464.896l6.144-4.096 421.888-269.926c5.734-3.277 11.878-5.325 18.022-5.325s12.288 1.638 18.022 5.325l427.622 274.022v-468.992h-891.699v4.096z" />
<glyph unicode="&#xe030;" glyph-name="download" d="M980.173 24.064h-936.346c-24.166 0-43.827-19.661-43.827-43.827s19.661-44.237 43.827-44.237h935.936c24.166 0 43.827 19.661 43.827 43.827s-19.251 44.237-43.418 44.237zM555.827 193.638l257.638 257.638c17.203 17.203 17.203 45.056 0 62.259s-45.056 17.203-62.669 0l-194.97-195.379v598.016c0 24.166-19.661 43.827-43.827 43.827v0c-24.166 0-43.827-19.661-43.827-43.827v-600.883l-195.379 197.837c-17.203 17.203-45.056 17.203-62.259 0.41v0c-17.203-17.203-17.203-45.056 0-62.259l258.867-257.638c12.288-12.288 27.443-18.842 43.418-18.842 15.155 0 31.539 6.963 43.008 18.842z" />
<glyph unicode="&#xe031;" glyph-name="phone" d="M995.738 214.528l-125.338 125.338c-18.432 18.432-42.598 28.262-68.403 28.262s-49.971-10.24-68.403-28.262l-56.934-56.934c-11.059-11.059-25.805-17.203-41.779-17.203-15.565 0-30.72 6.144-41.779 17.203l-246.579 246.989c-22.938 22.938-22.938 60.211 0 83.149l56.934 56.934c18.022 18.022 28.262 42.598 28.262 68.403s-9.83 50.381-28.262 68.813l-125.338 124.518c-18.022 18.022-42.598 28.262-68.403 28.262s-49.971-9.83-68.403-28.262l-32.358-31.949-13.517-13.107c-61.44-61.85-95.437-144.179-95.437-231.834s33.997-169.984 95.846-231.424l391.168-391.168c61.85-61.85 144.179-95.846 231.834-95.846s169.574 33.997 231.834 95.846l45.466 45.466c18.432 18.432 28.262 42.598 28.262 68.403-0.41 25.805-10.65 49.971-28.672 68.403zM287.539 660.173v0c-47.104-53.248-44.237-133.939 5.734-183.91l246.579-246.989c25.395-25.395 58.982-39.322 95.027-39.322 32.768 0 64.307 11.878 88.883 33.587v0 0l62.669 62.259c4.096 4.096 9.421 6.144 15.155 6.144 0 0 0 0 0 0 5.734 0 11.059-2.048 15.155-6.144l125.338-125.338c4.096-4.096 6.144-9.421 6.144-15.155s-2.048-11.059-6.144-15.155l-63.078-61.44c-45.466-37.683-102.4-58.163-160.973-58.163-66.765 0-130.253 26.214-178.176 74.138l-390.758 391.987c-92.57 92.57-99.533 238.387-15.974 339.149l61.44 62.669c4.096 4.096 9.421 6.144 15.155 6.144s11.059-2.048 15.155-6.144l125.338-124.928c8.192-8.192 8.192-21.709 0-30.31l-62.669-63.078z" />
</font>
</defs>
</svg>
